<?xml version="1.0" encoding="utf-8"?>
<!-- Generator: Adobe Illustrator 27.9.0, SVG Export Plug-In . SVG Version: 6.00 Build 0)  -->
<svg version="1.1" id="Layer_1" xmlns="http://www.w3.org/2000/svg" xmlns:xlink="http://www.w3.org/1999/xlink" x="0px" y="0px"
	 viewBox="0 0 1350 1626.76" style="enable-background:new 0 0 1350 1626.76;" xml:space="preserve">
<style type="text/css">
	.st0{fill:#31C09C;}
	.st1{fill:#FDFEFE;}
</style>
<g>
	<path class="st0" d="M297.6,477.55c2.84-13.44,3.72-25.06,1.11-36.74c-3.23-14.47-11.68-25.37-24.52-32.5
		c-20.49-11.38-46.15-3.63-58.7,17.58c-10.78,18.23-11.61,37.99-7.42,58.1c3.48,16.72,11.82,31.1,23.72,43.26
		c7.9,8.07,16.31,15.63,24.48,23.41c-0.95,5.12-4.93,3.69-7.74,3.38c-41.27-4.55-73.06-24.35-93.19-60.75
		c-17.91-32.38-21.7-66.88-10.11-102.39c12.61-38.63,39.1-62.6,78.39-72.49c26.53-6.67,53.01-4.6,79.17,1.74
		c26.01,6.31,20.83,4.92,26.27-15.12c4.91-18.07,11.32-35.55,19.99-52.15c15.74-30.12,37.61-54.72,65.86-73.8
		c27.14-18.34,56.01-33.48,85.33-47.91c19.72-9.7,39.41-19.49,58.78-29.89c42.29-22.7,78.34-52.8,106.88-91.64
		c2.63-3.58,4.09-8.62,9.4-9.64c3.63,1.01,5,4.21,6.85,6.83c28.67,40.55,65.87,71.35,109.31,94.75
		c21.11,11.37,42.73,21.81,64.22,32.46c24.5,12.14,48.39,25.27,71.6,39.79c48.27,30.21,77.57,73.83,92.93,127.88
		c2.11,7.41,0.46,18.29,8.78,21.04c6.03,2,14.09-2.12,21.24-3.51c24.37-4.77,48.76-7.07,73.38-1.48
		c51.55,11.7,85.26,52.74,87.06,105.59c1.34,39.52-10.94,73.5-40.19,100.52c-21.37,19.74-47.02,29.4-75.78,30.59
		c-2.42-5.08,1.39-6.42,3.5-8.5c8.08-7.92,16.78-15.29,24.26-23.74c19.53-22.03,24.53-48.2,19.79-76.58
		c-1.67-10.02-6.15-19.01-12.81-26.74c-17.59-20.45-46.62-21.3-65.18-1.79c-8.53,8.96-13.91,19.64-14.27,32.17
		c-0.23,7.96,0.67,15.95,0.96,23.93c0.06,1.72,0.69,2.76,2.39,2.54c1.18-0.15,2.76-0.52,3.35-1.36c3.46-4.89,6.5-10.08,10.02-14.91
		c3.99-5.46,9.11-9.76,15.4-12.38c9.56-3.98,17.5,0.24,19.39,10.44c1.35,7.28,0.79,14.61-0.42,21.88
		c-4.83,29.05-19.66,51.88-42.76,69.86c-5.58,4.35-15.13,6.17-15.53,14.14c-0.3,6.03,4.19,12.3,6.56,18.46
		c16.16,42.02,14.47,83.49-4.23,124.28c-12.35,26.96-29.91,50.42-50.36,71.65c-12,12.46-25.07,23.89-37.62,35.83
		c-6.38,6.07-6.72,7.42-2.48,15.51c9.91,18.94,21.8,36.66,34.37,53.89c28.79,39.46,62.09,74.85,97.97,107.89
		c14.06,12.95,30.6,21.24,49.09,25.53c5.77,1.34,11.87,1.84,17.81,1.78c14.48-0.14,25.61-6.45,32.57-19.4
		c3.78-7.04,7.1-14.35,11.1-21.26c5-8.64,9.89-17.43,15.87-25.38c16.85-22.42,40.51-32.11,67.71-32.8
		c25.4-0.65,39.8,14.25,39.64,39.72c-0.07,12.04-2.2,23.85-7.8,34.8c-6.07,11.86-11.92,23.84-17.92,35.74
		c-2.49,4.94-1.52,8.84,3,12.08c4.33,3.11,8.58,6.34,12.73,9.68c9.42,7.56,17.6,16.3,24.19,26.46
		c16.37,25.24,19.54,51.86,8.46,80.06c-7.72,19.65-19.8,36.35-35.46,50.17c-43.81,38.66-95.06,55.29-153.23,49.3
		c-19.35-1.99-37.84-7.94-54.88-17.52c-7.3-4.11-14.56-5.34-22.9-4.85c-92.02,5.43-180.47,25.84-265.16,62.36
		c-40.46,17.45-79.37,37.85-116.84,60.99c-5.1,3.15-10.2,6.32-15.25,9.55c-3.17,2.04-6.25,1.82-9.34-0.06
		c-5.69-3.46-11.39-6.93-17.05-10.43c-79.42-49.18-164.31-85.02-255.63-105.36c-42.41-9.45-85.41-14.12-128.64-17.31
		c-6.31-0.47-11.76,1.11-17.13,4.11c-70.41,39.34-165.94,17.58-219.72-40.7c-12.35-13.39-22.07-28.32-27.72-45.79
		c-8.84-27.31-4.64-52.61,11.44-76.08c6.05-8.82,13.06-16.87,21.58-23.46c4.74-3.67,9.41-7.45,14.29-10.93
		c4.5-3.22,5.56-7.04,3.12-11.98c-5.9-11.94-11.5-24.05-17.72-35.83c-6.13-11.59-8.07-24-7.76-36.74
		c0.62-24.68,14.43-38.4,39.19-37.99c23.44,0.39,44.43,7.98,61.24,25.17c6.1,6.24,11.33,13.14,15.58,20.72
		c5.86,10.46,11.67,20.96,17.05,31.67c7.79,15.54,20.53,22.21,37.4,21.37c22.1-1.1,41.65-9.54,58.25-23.62
		c14.7-12.48,28.53-26.09,41.95-39.97c34.4-35.55,65.41-73.8,90.31-116.73c2.01-3.46,3.88-6.99,5.96-10.4
		c2.85-4.65,2.56-8.68-1.73-12.36c-5.57-4.77-11.08-9.61-16.51-14.53c-22.84-20.68-43.26-43.49-59.67-69.62
		c-19.21-30.58-30.59-63.4-28.46-100.22c0.97-16.86,4.7-32.92,10.49-48.61c1.61-4.37,3.54-8.63,5.51-12.86
		c2.27-4.86,1.93-8.78-2.92-12.03c-4.97-3.34-9.72-7.02-14.44-10.72c-23.8-18.67-36.87-43.38-40.54-73.16
		c-0.64-5.2-0.5-10.71,0.5-15.84c2.18-11.19,10.79-14.97,21.04-9.65c6.63,3.44,11.68,8.7,16.18,14.62
		C289.28,467.05,291.17,472.88,297.6,477.55z M439.89,581.16c-5.79,5.86-11.96,11.84-17.84,18.09
		c-32.46,34.53-35.57,71.2-9.46,110.68c10.39,15.71,23.38,29.1,37.89,40.91c45.01,36.65,95.94,62.14,151.3,78.98
		c19.73,6,39.75,11.07,59.37,17.39c9.34,3.01,17.85,3.34,27.19,0.11c14.45-4.99,29.13-9.48,43.96-13.2
		c38.37-9.64,74.52-24.63,108.99-43.83c28.64-15.95,55.44-34.4,78.21-58.27c11.11-11.65,20.64-24.35,27.42-39.05
		c12.13-26.34,10.11-51.72-5.05-76.17c-6.71-10.83-15.19-20.19-24.71-28.65c-2.79-2.48-7.05-4.17-6.12-10.65
		c8.77-7.42,17.27-16.76,25.06-26.69c32.5-41.42,42.17-88.07,31.49-139.25c-6.69-32.07-21.83-60.06-43.33-84.37
		c-59.94-67.8-148.99-81.43-223.86-34.56c-5.08,3.18-10.21,6.33-14.95,9.97c-11.15,8.56-10.81,7.54-20.33,0.35
		c-12.8-9.67-26.64-17.66-41.38-24.01c-34.83-15.02-70.82-18.1-107.46-8.6c-44.47,11.53-78.81,37.87-104.85,75.21
		c-19.03,27.29-30.52,57.62-32.88,90.94c-3.55,50.13,13.63,92.72,48.05,128.81C431.12,570.05,436.96,573.73,439.89,581.16z
		 M436.77,969.15c-1.12-0.34-2.24-0.68-3.36-1.02c-4.5,5.66-8.99,11.34-13.51,16.98c-28.6,35.7-62.09,65.81-101.11,89.88
		c-9.67,5.96-18.56,7.94-30.02,5.48c-59.33-12.75-119.49-20.04-179.86-25.61c-6.63-0.61-13.31-0.67-19.97-0.75
		c-3.78-0.04-6.46,1.96-6.48,5.9c-0.16,21.99-0.23,43.98-0.12,65.97c0.02,3.62,2.18,6.2,6.16,6.49c2.65,0.19,5.32,0.32,7.98,0.32
		c37.99,0.04,75.92,0.61,113.8,4.5c39.82,4.09,79.22,10.35,118.23,19.13c119.14,26.8,228.36,76.16,329.14,144.76
		c18.68,12.72,14.73,13.75,34.44,0.28c68.55-46.86,141.57-84.97,219.81-113.01c96.77-34.68,196.45-53.36,299.25-55.29
		c15.99-0.3,31.99-0.16,47.98-0.44c6.58-0.12,9.15-2.14,9.21-7.98c0.22-21.32,0.12-42.65-0.02-63.98c-0.03-4.95-3.26-7.09-7.9-6.73
		c-22.58,1.74-45.23,2.93-67.7,5.58c-45.63,5.39-91.13,11.86-136.05,21.75c-7.68,1.69-14.44,0.69-20.87-3.75
		c-3.28-2.27-6.82-4.17-10.19-6.31c-36.92-23.45-68.84-52.4-96.01-86.69c-4.24-5.35-7.43-12.11-15.41-16.46
		c0,7.21-0.19,12.45,0.03,17.68c1.69,39.95,3.4,79.9,5.21,119.84c0.87,19.23-0.19,17.51-15.25,22.55
		c-64.41,21.55-123.45,53.29-177.66,94.05c-15.44,11.61-30.2,24.11-45.31,36.16c-5.65,4.51-6.78,4.52-12.08,0.36
		c-2.62-2.06-5.04-4.36-7.59-6.5c-36.82-30.98-75.88-58.72-118.27-81.62c-32.9-17.78-67.07-32.61-102.64-44.24
		c-10.09-3.3-10.68-4.08-10.41-13.99c0.42-15.98,1.3-31.96,2.05-47.93C433.74,1032.71,435.26,1000.93,436.77,969.15z"/>
	<path class="st0" d="M680.61,1626.52c-70.64,0.6-135.14-2.73-199.59-7.71c-33.2-2.57-66.37-5.12-99.5-8.52
		c-86.45-8.87-156.62-48.71-214.69-111.74c-14.99-16.27-26.87-34.69-33.96-55.96c-10.94-32.79-3.88-61.67,18.58-87.21
		c12.5-14.21,27.8-24.88,44.86-32.82c38.24-17.8,78.6-24.86,120.55-21.62c50.07,3.87,98.36,16.82,146.28,30.89
		c64.62,18.97,127.06,43.89,188.38,71.65c4.85,2.2,9.84,4.18,14.42,6.86c6.49,3.8,12.27,2.65,18.77-0.32
		c22.4-10.23,44.88-20.33,67.6-29.83c74.48-31.15,150.85-56.38,230.16-72.19c32.83-6.55,65.74-10.33,99.23-5.82
		c33.41,4.5,65.12,13.64,93.33,32.78c16.24,11.02,29.91,24.5,38.53,42.39c8.67,18,10.87,36.7,6.11,56.37
		c-5.48,22.62-16.66,42.23-31.85,59.26c-52.95,59.33-116.24,100.87-196.39,113.83c-29.65,4.79-59.46,7.67-89.3,9.81
		C826.41,1622.06,750.67,1628.05,680.61,1626.52z"/>
	<path class="st1" d="M439.89,581.16c-2.93-7.42-8.77-11.1-13.3-15.86c-34.42-36.1-51.6-78.68-48.05-128.81
		c2.36-33.32,13.85-63.65,32.88-90.94c26.04-37.33,60.38-63.67,104.85-75.21c36.64-9.5,72.63-6.42,107.46,8.6
		c14.73,6.35,28.57,14.35,41.38,24.01c9.52,7.19,9.17,8.21,20.33-0.35c4.74-3.64,9.87-6.79,14.95-9.97
		c74.86-46.87,163.92-33.24,223.86,34.56c21.5,24.31,36.63,52.3,43.33,84.37c10.68,51.18,1.01,97.84-31.49,139.25
		c-7.79,9.93-16.29,19.27-25.06,26.69c-0.93,6.48,3.33,8.17,6.12,10.65c9.53,8.46,18,17.83,24.71,28.65
		c15.16,24.45,17.18,49.84,5.05,76.17c-6.77,14.7-16.31,27.4-27.42,39.05c-22.76,23.88-49.56,42.33-78.21,58.27
		c-34.47,19.2-70.62,34.19-108.99,43.83c-14.83,3.72-29.5,8.21-43.96,13.2c-9.34,3.22-17.85,2.89-27.19-0.11
		c-19.62-6.32-39.64-11.39-59.37-17.39c-55.36-16.84-106.29-42.33-151.3-78.98c-14.51-11.81-27.5-25.2-37.89-40.91
		c-26.11-39.48-23-76.15,9.46-110.68C427.92,593,434.1,587.02,439.89,581.16z M450.86,446.35c7.19-4.5,12.18-7.79,17.33-10.82
		c26.52-15.6,54.92-19.31,84.58-12.15c14.89,3.59,28.8,10.01,42.15,17.64c11.31,6.46,11.47,6.25,18.6-4.42
		c2.95-4.42,5.87-8.87,8.59-13.43c3.46-5.8,3.06-7.8-2.67-11.26c-18.89-11.37-38.84-20.29-60.33-25.48
		c-43.32-10.46-82.93-1.33-119.61,22.92c-2.21,1.46-4.41,3.02-6.29,4.87c-2.01,1.98-2.83,4.56-0.95,7.12
		C438.09,429.3,444.04,437.2,450.86,446.35z M604.94,739.06c-7.59,6.03-12.19,15.06-18.49,22.61c-2.48,2.96-2.05,6.07,1.25,8.52
		c30.47,22.57,64.44,34.15,102.49,30.93c30.33-2.57,57.89-13.92,83.66-29.76c4.57-2.81,5.29-5.53,2.65-9.92
		c-3.76-6.25-7.7-12.41-11.86-18.41c-3.65-5.27-6-5.91-11.64-2.59c-11.49,6.75-23.31,12.79-35.99,16.85
		c-34.04,10.9-66.69,8.6-97.49-10.75C615.1,743.76,611.22,739.79,604.94,739.06z M826.74,382.17c-28.76,0.15-54.12,7.66-78.08,19.89
		c-30.51,15.57-25.94,12.39-8.62,39.67c2.61,4.12,6.07,4.26,10.23,1.94c13.37-7.46,26.9-14.55,41.75-18.78
		c30.19-8.61,59.08-6.09,86.91,8.92c6.76,3.65,12.85,13.04,20.47,9.59c6.52-2.95,10.66-11.44,15.47-17.77
		c5.36-7.05,4.99-9.68-2.06-14.59C886.5,392.69,857.56,382.21,826.74,382.17z M524.4,477.4c-18.82-0.61-37.15,14.95-36.88,38.44
		c0.18,15.68,13.96,35.61,38,35.38c23.03-0.21,36.66-20.66,36.96-36.53C562.78,498.49,548.3,476.04,524.4,477.4z M825.72,551.01
		c23.47,0.61,36.53-20.95,36.77-36.49c0.25-16.1-14.35-37.97-38.25-37.32c-19.19,0.52-37.13,15.88-36.71,38.82
		C787.83,531.52,801.5,552.26,825.72,551.01z M614.93,595.13c-8.1-0.07-15.84,1.82-23.46,4.16c-3.6,1.1-5.34,3.97-4.33,7.7
		c2.6,9.54,5.06,12.05,13.58,9.54c19.33-5.69,35.45-0.55,47.99,14.99c7.41,9.19,9.38,6.2,16.44,1.95c4.53-2.73,4.77-5.19,1.62-9.85
		C654.36,605.26,637.06,595.79,614.93,595.13z M734.36,595.08c-21.26,1.14-38.31,10-50.43,27.76c-1.43,2.1-2.93,4.4-1.6,7.35
		c2.74,6.05,11.97,8.62,16.26,4.34c2.35-2.35,4.35-5.04,6.68-7.42c10.61-10.84,23.45-14.68,38.3-11.95c3.27,0.6,6.46,1.66,9.74,2.13
		c4.71,0.68,7.38-2,8.94-8.5c1.2-5.01-0.11-8.39-4.32-9.62C750.27,596.91,742.53,594.88,734.36,595.08z"/>
	<path class="st1" d="M436.77,969.15c-1.51,31.78-3.04,63.56-4.52,95.34c-0.75,15.98-1.63,31.95-2.05,47.93
		c-0.26,9.92,0.32,10.69,10.41,13.99c35.57,11.63,69.74,26.46,102.64,44.24c42.39,22.91,81.45,50.64,118.27,81.62
		c2.55,2.15,4.97,4.45,7.59,6.5c5.3,4.17,6.42,4.15,12.08-0.36c15.11-12.05,29.87-24.55,45.31-36.16
		c54.21-40.76,113.25-72.49,177.66-94.05c15.06-5.04,16.12-3.32,15.25-22.55c-1.81-39.94-3.53-79.89-5.21-119.84
		c-0.22-5.23-0.03-10.48-0.03-17.68c7.97,4.35,11.16,11.11,15.41,16.46c27.17,34.29,59.09,63.24,96.01,86.69
		c3.37,2.14,6.91,4.04,10.19,6.31c6.43,4.44,13.19,5.44,20.87,3.75c44.92-9.89,90.42-16.36,136.05-21.75
		c22.47-2.65,45.12-3.84,67.7-5.58c4.64-0.36,7.87,1.78,7.9,6.73c0.14,21.32,0.24,42.65,0.02,63.98c-0.06,5.84-2.63,7.86-9.21,7.98
		c-15.99,0.28-31.99,0.14-47.98,0.44c-102.79,1.92-202.48,20.61-299.25,55.29c-78.24,28.04-151.26,66.16-219.81,113.01
		c-19.7,13.47-15.75,12.44-34.44-0.28c-100.78-68.59-210-117.95-329.14-144.76c-39.02-8.78-78.41-15.04-118.23-19.13
		c-37.89-3.89-75.81-4.45-113.8-4.5c-2.66,0-5.33-0.13-7.98-0.32c-3.98-0.29-6.14-2.87-6.16-6.49c-0.11-21.99-0.04-43.98,0.12-65.97
		c0.03-3.94,2.71-5.94,6.48-5.9c6.66,0.08,13.35,0.14,19.97,0.75c60.38,5.57,120.54,12.86,179.86,25.61
		c11.46,2.46,20.35,0.48,30.02-5.48c39.02-24.07,72.51-54.18,101.11-89.88c4.52-5.65,9.01-11.32,13.51-16.98
		C434.53,968.47,435.65,968.81,436.77,969.15z"/>
	<path class="st0" d="M450.86,446.35c-6.82-9.15-12.76-17.05-18.61-25.02c-1.88-2.56-1.05-5.14,0.95-7.12
		c1.87-1.85,4.08-3.41,6.29-4.87c36.68-24.25,76.29-33.38,119.61-22.92c21.5,5.19,41.45,14.11,60.33,25.48
		c5.74,3.45,6.14,5.45,2.67,11.26c-2.72,4.56-5.64,9.01-8.59,13.43c-7.13,10.67-7.29,10.88-18.6,4.42
		c-13.35-7.63-27.26-14.05-42.15-17.64c-29.67-7.16-58.06-3.44-84.58,12.15C463.04,438.55,458.05,441.84,450.86,446.35z"/>
	<path class="st0" d="M604.94,739.06c6.28,0.73,10.16,4.7,14.57,7.47c30.79,19.35,63.45,21.65,97.49,10.75
		c12.68-4.06,24.51-10.1,35.99-16.85c5.63-3.31,7.98-2.67,11.64,2.59c4.16,6,8.1,12.15,11.86,18.41c2.64,4.39,1.92,7.11-2.65,9.92
		c-25.77,15.84-53.33,27.19-83.66,29.76c-38.05,3.22-72.02-8.36-102.49-30.93c-3.3-2.45-3.72-5.55-1.25-8.52
		C592.75,754.11,597.35,745.09,604.94,739.06z"/>
	<path class="st0" d="M826.74,382.17c30.82,0.04,59.76,10.52,86.07,28.86c7.04,4.91,7.42,7.54,2.06,14.59
		c-4.81,6.33-8.96,14.82-15.47,17.77c-7.62,3.45-13.71-5.94-20.47-9.59c-27.83-15.01-56.73-17.53-86.91-8.92
		c-14.85,4.24-28.38,11.32-41.75,18.78c-4.16,2.32-7.62,2.18-10.23-1.94c-17.32-27.28-21.89-24.1,8.62-39.67
		C772.62,389.83,797.98,382.32,826.74,382.17z"/>
	<path class="st0" d="M524.4,477.4c23.9-1.36,38.38,21.09,38.08,37.29c-0.29,15.87-13.92,36.32-36.96,36.53
		c-24.04,0.22-37.82-19.7-38-35.38C487.25,492.35,505.58,476.8,524.4,477.4z"/>
	<path class="st0" d="M825.72,551.01c-24.23,1.25-37.9-19.49-38.19-34.99c-0.43-22.94,17.52-38.29,36.71-38.82
		c23.89-0.65,38.5,21.21,38.25,37.32C862.25,530.06,849.19,551.62,825.72,551.01z"/>
	<path class="st0" d="M614.93,595.13c22.13,0.66,39.43,10.13,51.85,28.49c3.15,4.66,2.91,7.12-1.62,9.85
		c-7.06,4.25-9.03,7.23-16.44-1.95c-12.54-15.54-28.66-20.68-47.99-14.99c-8.51,2.51-10.98,0-13.58-9.54
		c-1.02-3.73,0.73-6.6,4.33-7.7C599.09,596.95,606.83,595.06,614.93,595.13z"/>
	<path class="st0" d="M734.36,595.08c8.17-0.2,15.91,1.83,23.58,4.08c4.21,1.23,5.52,4.61,4.32,9.62c-1.56,6.5-4.23,9.18-8.94,8.5
		c-3.28-0.47-6.48-1.53-9.74-2.13c-14.85-2.73-27.69,1.11-38.3,11.95c-2.33,2.38-4.33,5.07-6.68,7.42
		c-4.29,4.29-13.52,1.71-16.26-4.34c-1.34-2.94,0.16-5.25,1.6-7.35C696.05,605.08,713.1,596.22,734.36,595.08z"/>
</g>
</svg>
